PathFileType	4	(X/Y/Z)	15_coords_data.trc
DataRate	CameraRate	NumFrames	NumMarkers	Units	OrigDataRate	OrigDataStartFrame	OrigNumFrames
30.0	30.0	8	21	m	30.0	30	68
Frame#	Time	THUMB_TIP	THUMB_IP	THUMB_MCP	THUMB_CMC	INDEX_TIP	INDEX_DIP	INDEX_PIP	INDEX_MCP	MIDDLE_TIP	MIDDLE_DIP	MIDDLE_PIP	MIDDLE_MCP	RING_TIP	RING_DIP	RING_PIP	RING_MCP	PINKY_TIP	PINKY_DIP	PINKY_PIP	PINKY_MCP	WRIST
X1	Y1	Z1	X2	Y2	Z2	X3	Y3	Z3	X4	Y4	Z4	X5	Y5	Z5	X6	Y6	Z6	X7	Y7	Z7	X8	Y8	Z8	X9	Y9	Z9	X10	Y10	Z10	X11	Y11	Z11	X12	Y12	Z12	X13	Y13	Z13	X14	Y14	Z14	X15	Y15	Z15	X16	Y16	Z16	X17	Y17	Z17	X18	Y18	Z18	X19	Y19	Z19	X20	Y20	Z20	X21	Y21	Z21
28	0.9666666666666625	0.5226874193645408	-0.0030458858504157638	-0.15397157771653047	0.5074194148877844	-0.0069762742489410945	-0.13725511617903718	0.48272039101527764	-0.015231635237904162	-0.12020732351584348	0.4750159969307486	-0.02563090846833771	-0.07751789358208747	0.5570743246217894	0.0129999704502759	-0.15375223875476957	0.5434465372164221	0.02350451983199353	-0.14810088027019536	0.5228954333453293	0.033109403560013684	-0.13726537514810883	0.48757191317379056	0.02888314854599816	-0.11385546730447532	0.5735212169554135	0.01326769412859008	-0.1408172394637257	0.5608649397503209	0.022764614805701244	-0.13200661264377056	0.538711173935984	0.0350216814197617	-0.11757108257861529	0.5013553153982317	0.03558453805207451	-0.09306861441071612	0.577361547189295	0.00452496539274061	-0.12213706001950564	0.5667462880969683	0.015085272192781884	-0.11209732921177093	0.5499708600508806	0.026877205297965223	-0.09796526260729235	0.5161329853831176	0.031067659352809307	-0.07623603881114605	0.5791897437484126	-0.014065361815303157	-0.0964619299535453	0.5693085461072492	-0.003525611109428395	-0.08728175630408311	0.554741758345055	0.007038924779167899	-0.07646458039029913	0.5236184866757144	0.01709584481456916	-0.06126314062302801	0.462283081001861	-0.023011742144276925	-0.05198982011943101
29	0.9999999999999956	0.5202231233875672	-0.0021088867093221886	-0.15520736861062584	0.5053794407385703	-0.006313663792487767	-0.13817842457123344	0.4810946321619418	-0.01454099291976163	-0.1205324865732686	0.47459668586662196	-0.025366147093731972	-0.07774834545704523	0.5556325656135702	0.014135339024302196	-0.15508002525017417	0.5422770198347675	0.02467089345011919	-0.14886460170137622	0.522085666895413	0.03424976464320262	-0.13735094345802276	0.487273028280531	0.029754981138001457	-0.11323635849557742	0.5729053612051822	0.015459471527417779	-0.14243829794757584	0.5603827739213959	0.0245938942275874	-0.13307095415893555	0.5384738021848908	0.03626840486984062	-0.11780293828545216	0.5015449479847348	0.03574209862464295	-0.0926607297468236	0.5771340391871219	0.006268209526194002	-0.12397147377609269	0.5666615819368779	0.016454231277069797	-0.11340868058335746	0.5500542559634414	0.027615584185998743	-0.0985829966445177	0.5165264145516877	0.03069079351972892	-0.07619666662322935	0.5786257919996994	-0.015154258237500828	-0.09846349521113629	0.5691190683361244	-0.004614879919342951	-0.08889564749855411	0.554937356567432	0.005991979138265879	-0.07761798766852912	0.5241768182842349	0.016113848045426704	-0.061736536054957575	0.4622830810018609	-0.023011742144276925	-0.051989820119430985
30	1.0333333333333288	0.5171698886573364	-0.0008469367074964707	-0.15668451296067137	0.5029121331591437	-0.0053473210982492025	-0.1392356462785848	0.47919328827422314	-0.013586619985879622	-0.12084134414000497	0.47405211901330513	-0.025019429797633608	-0.07803072351335608	0.5541939792970759	0.015840094047856468	-0.15652690706849764	0.541156076156458	0.026319511150025843	-0.14958465247113328	0.5213666181652368	0.03576247537338417	-0.1372875954211693	0.4870972487316557	0.03064928298927394	-0.11252670536713799	0.5723806822084048	0.017856781968037194	-0.14409175941741387	0.5600339746322537	0.026562923129797023	-0.13410367060620854	0.5383893758918743	0.037516254594428755	-0.11794986532095539	0.5019038908689032	0.03580455815921957	-0.09221997222066744	0.5770319063195225	0.008176074725291027	-0.12588893080912117	0.5667185913278477	0.017892097041769417	-0.11474288019788706	0.5502867908215952	0.028321412855159545	-0.09920565770519899	0.5170715985078954	0.030122712470983526	-0.07622246486221099	0.5782116353231381	-0.016188685238598732	-0.10064942752082057	0.56905832277918	-0.005731708697461979	-0.09065600412887248	0.5552224274874483	0.004804819478976929	-0.0788932835905215	0.5248302446727826	0.014909792375033426	-0.06230750059634527	0.4622830810018609	-0.023011742144276925	-0.051989820119430985
31	1.0666666666666622	0.5136462184702859	0.0010489864595304432	-0.15816752795465083	0.5001362709796452	-0.003882567495600675	-0.140246559945423	0.4770873746370311	-0.012243998271134537	-0.12107223198396921	0.47337184658753206	-0.024558162240422732	-0.07835869528831654	0.5530794194659626	0.018270633175293205	-0.15791178619731108	0.5403262956708765	0.028517412782525398	-0.15014253004578543	0.5209011353119496	0.03756687257539604	-0.1369979396951052	0.4871483491893511	0.0314894932422386	-0.1117501480411201	0.5721524532434764	0.0204604695247268	-0.1455918848657093	0.5599691654588862	0.028625400817426483	-0.13496637801928785	0.5385667340840564	0.03870453274068775	-0.11794414018405605	0.5024831456539866	0.035719098421787776	-0.09176762878668165	0.5771253639391085	0.010077538314499757	-0.12776519520191168	0.5669879788846036	0.019247619913897673	-0.11601176899007509	0.550720836590097	0.028852747184565097	-0.09978519847488138	0.5177995736923799	0.02931719205450356	-0.07631829467011428	0.5779928223833776	-0.01713465355768351	-0.10298626921757953	0.5691586810127608	-0.006856056415471046	-0.09253120407995108	0.5556411916407586	0.0035377342725454453	-0.08028136264377261	0.525587159632683	0.013438614943631633	-0.06297208267623869	0.462283081001861	-0.023011742144276925	-0.05198982011943096
32	1.0999999999999952	0.5097214827332464	0.003816298886228142	-0.1595080895633844	0.49712565365757455	-0.001726719118408937	-0.14110645807873806	0.4748573535912768	-0.010380108172373559	-0.12115497517550367	0.4725402655668459	-0.0239425018293441	-0.07872170307234852	0.5524420789007067	0.021671572661649763	-0.1592181696317656	0.5398544188540332	0.03138770873569241	-0.15054940303321956	0.5206853908244504	0.03963512924401913	-0.1365301929142471	0.4874585993022028	0.03221957086488936	-0.11094453456698508	0.572419342416502	0.023381856287882363	-0.1468434316349334	0.5603264886413774	0.030840254651966492	-0.13561243962994646	0.5390632743916005	0.039805160284335894	-0.11781031231968375	0.5033211630596738	0.03540969495338531	-0.09136547760549854	0.5775216687779323	0.011914046682851565	-0.1295753438837394	0.5675093240746218	0.0204165596678888	-0.11722786533622351	0.5513777809900374	0.02909959868106604	-0.10035901445046841	0.5187042127662355	0.02822531967423081	-0.07655997224825425	0.5780605144775015	-0.01791625571373545	-0.10548003914638573	0.5694807194464606	-0.007933353362968742	-0.0945379745386262	0.556204808108895	0.00218964260678145	-0.08180662937193145	0.5264221568016559	0.011674445119510879	-0.06380897248538309	0.4622830810018609	-0.023011742144276925	-0.051989820119430985
33	1.1333333333333284	0.505504154231027	0.007451709769856429	-0.1605128597822746	0.4939500971861843	0.001087817970877758	-0.14169784856847475	0.4725470598105742	-0.008055453672735302	-0.12103071101269941	0.47155179474773967	-0.02323203525051376	-0.0790953939271242	0.5522016253419659	0.025988122667175984	-0.16033683831744083	0.5396569688290269	0.03484348492237932	-0.15073401829926403	0.5206577674300624	0.04192571288592162	-0.13587191123889053	0.48797487854386157	0.0328513655003847	-0.1101207736411289	0.5731462277055337	0.0265641587097033	-0.14775696855785433	0.5610410358679488	0.03313451486641983	-0.13599708970859867	0.5398212038392329	0.040781428679065757	-0.11754030266927235	0.5043495297686382	0.03490919598560294	-0.09101813943126827	0.5781908402807184	0.013711580643414267	-0.1312866174189928	0.5682336975325604	0.021405993587387595	-0.11837726740667928	0.5521984531168329	0.0290745284401539	-0.10093466184616184	0.5197369076607384	0.02688061617111337	-0.07693141936607864	0.5784269091995834	-0.018517610584674937	-0.10804544405705391	0.5699946215798878	-0.00895573748490508	-0.09662322411859073	0.5568678891879	0.0007762206548508344	-0.08344028414014959	0.5272934336532636	0.009642647477174138	-0.06479567349164822	0.4622830810018609	-0.023011742144276925	-0.051989820119430985
34	1.1666666666666616	0.5008759875807746	0.011948029010503736	-0.16109655113438323	0.49050938384593157	0.004520501631484097	-0.14198201833761698	0.47007178938799876	-0.00531146256549031	-0.1206640162548116	0.4704414200331173	-0.02235821462730947	-0.07944312813569102	0.5523747786037659	0.031360456830293426	-0.16111814342984776	0.5397261687333897	0.03895097520146351	-0.15061116007571837	0.52081358279984	0.044431331629128046	-0.13498139297150807	0.48870601830624305	0.03337531600642851	-0.10928110280115896	0.5744527526487984	0.030161038449773803	-0.14817196993784823	0.5621888719250392	0.03561274128477576	-0.1360115354969148	0.5408386084696978	0.041644625978928484	-0.11711200726407356	0.5055496951973075	0.034208383558254396	-0.09073886145788101	0.5792563634936181	0.015568436802387176	-0.13276056521230797	0.569245743651626	0.022319577282063463	-0.11937364650026705	0.553190736272499	0.02880651856181915	-0.1014757050016146	0.5208598688606048	0.025285282097072814	-0.0774541159585504	0.5792354038319866	-0.018894793550810696	-0.11043650365440838	0.5707571604652452	-0.009891432997584548	-0.09860185587076403	0.5576246168702625	-0.000696684031391559	-0.08504438895490637	0.5281342029481864	0.007417591840068738	-0.06593006278874372	0.462283081001861	-0.023011742144276925	-0.05198982011943101
35	1.1999999999999948	0.4958989604783891	0.017135643258823552	-0.16115172461992755	0.4868915656257937	0.008418986084187119	-0.14189330501526376	0.46750958567896206	-0.0022696079771150623	-0.12000922837645378	0.4691725540064263	-0.021409448321706326	-0.07975017910892382	0.5527357143849219	0.03786264606325629	-0.16142148642306625	0.5398993173956476	0.0437772889061534	-0.1500970035485718	0.521027759853581	0.04719358594663847	-0.1338426790942106	0.48958672594978914	0.03382204570872405	-0.10842025999754601	0.5762121526610322	0.03444305661984681	-0.14799068822307587	0.5636535813071923	0.03850704477990574	-0.13559043476657706	0.5420428642266649	0.0425682171697257	-0.1164620962060651	0.5068718066768692	0.0333500254325616	-0.09049732058743451	0.5807113794320803	0.01778405005369288	-0.13391804636785554	0.5705092113083059	0.023360051723709474	-0.12014038434013055	0.5543110066386635	0.028448763605441463	-0.10192217488186889	0.5220441079360867	0.023470055816109392	-0.07807305433485301	0.5805319144923317	-0.019027777998947504	-0.11251757296501189	0.5718111701572202	-0.010738479973460113	-0.10034234580137061	0.5584952360507055	-0.0022370904862022423	-0.08651395852530319	0.5289352060266079	0.004991899358845586	-0.06715343730828413	0.4622830810018608	-0.023011742144276925	-0.051989820119430985
